<mxfile host="app.diagrams.net" modified="2021-05-28T03:43:08.490Z" agent="5.0 (Windows NT 10.0; Win64; x64) AppleWebKit/537.36 (KHTML, like Gecko) Chrome/90.0.4430.212 Safari/537.36" etag="AhX2Ko5OBWgvfRBkhdhC" version="14.7.2" type="github">
  <diagram id="CTmOGzoyT5WaWmqhhCym" name="Page-1">
    <mxGraphModel dx="1422" dy="800" grid="0" gridSize="10" guides="1" tooltips="1" connect="1" arrows="1" fold="1" page="1" pageScale="1" pageWidth="827" pageHeight="1169" math="0" shadow="0">
      <root>
        <mxCell id="0" />
        <mxCell id="1" parent="0" />
        <mxCell id="I_HunuTIMYHuIlzramTN-30" value="" style="rounded=1;whiteSpace=wrap;html=1;" parent="1" vertex="1">
          <mxGeometry x="122" y="357" width="622.5" height="400" as="geometry" />
        </mxCell>
        <mxCell id="I_HunuTIMYHuIlzramTN-32" style="edgeStyle=orthogonalEdgeStyle;rounded=0;orthogonalLoop=1;jettySize=auto;html=1;exitX=1;exitY=0.5;exitDx=0;exitDy=0;" parent="1" source="I_HunuTIMYHuIlzramTN-2" target="I_HunuTIMYHuIlzramTN-25" edge="1">
          <mxGeometry relative="1" as="geometry" />
        </mxCell>
        <mxCell id="I_HunuTIMYHuIlzramTN-2" value="&lt;div style=&quot;font-family: &amp;#34;consolas&amp;#34; , &amp;#34;courier new&amp;#34; , monospace ; line-height: 22px&quot;&gt;&lt;span style=&quot;background-color: rgb(255 , 255 , 255)&quot;&gt;&lt;font style=&quot;font-size: 18px&quot;&gt;idle&lt;/font&gt;&lt;/span&gt;&lt;/div&gt;" style="ellipse;whiteSpace=wrap;html=1;aspect=fixed;" parent="1" vertex="1">
          <mxGeometry x="167" y="387" width="110" height="110" as="geometry" />
        </mxCell>
        <mxCell id="I_HunuTIMYHuIlzramTN-3" value="&lt;font style=&quot;font-size: 24px&quot;&gt;TLB&lt;/font&gt;" style="rounded=0;whiteSpace=wrap;html=1;" parent="1" vertex="1">
          <mxGeometry x="227" y="157" width="400" height="150" as="geometry" />
        </mxCell>
        <mxCell id="I_HunuTIMYHuIlzramTN-4" value="&lt;font style=&quot;font-size: 24px&quot;&gt;MMU&lt;/font&gt;" style="rounded=0;whiteSpace=wrap;html=1;" parent="1" vertex="1">
          <mxGeometry x="227" y="47" width="400" height="60" as="geometry" />
        </mxCell>
        <mxCell id="I_HunuTIMYHuIlzramTN-5" value="" style="shape=singleArrow;direction=south;whiteSpace=wrap;html=1;" parent="1" vertex="1">
          <mxGeometry x="267" y="107" width="30" height="50" as="geometry" />
        </mxCell>
        <mxCell id="I_HunuTIMYHuIlzramTN-7" value="" style="shape=singleArrow;direction=south;whiteSpace=wrap;html=1;rotation=-180;" parent="1" vertex="1">
          <mxGeometry x="537" y="107" width="30" height="50" as="geometry" />
        </mxCell>
        <mxCell id="I_HunuTIMYHuIlzramTN-12" style="edgeStyle=orthogonalEdgeStyle;rounded=0;orthogonalLoop=1;jettySize=auto;html=1;exitX=0;exitY=0.5;exitDx=0;exitDy=0;" parent="1" source="I_HunuTIMYHuIlzramTN-8" edge="1">
          <mxGeometry relative="1" as="geometry">
            <mxPoint x="127" y="132" as="targetPoint" />
          </mxGeometry>
        </mxCell>
        <mxCell id="I_HunuTIMYHuIlzramTN-8" value="&lt;span style=&quot;font-size: 18px&quot;&gt;req&lt;/span&gt;" style="text;html=1;strokeColor=none;fillColor=none;align=center;verticalAlign=middle;whiteSpace=wrap;rounded=0;" parent="1" vertex="1">
          <mxGeometry x="237" y="122" width="40" height="20" as="geometry" />
        </mxCell>
        <mxCell id="I_HunuTIMYHuIlzramTN-22" style="edgeStyle=orthogonalEdgeStyle;rounded=0;orthogonalLoop=1;jettySize=auto;html=1;exitX=1;exitY=0.5;exitDx=0;exitDy=0;" parent="1" source="I_HunuTIMYHuIlzramTN-9" edge="1">
          <mxGeometry relative="1" as="geometry">
            <mxPoint x="687" y="132" as="targetPoint" />
          </mxGeometry>
        </mxCell>
        <mxCell id="I_HunuTIMYHuIlzramTN-9" value="&lt;font style=&quot;font-size: 18px&quot;&gt;resp&lt;/font&gt;" style="text;html=1;strokeColor=none;fillColor=none;align=center;verticalAlign=middle;whiteSpace=wrap;rounded=0;" parent="1" vertex="1">
          <mxGeometry x="567" y="122" width="40" height="20" as="geometry" />
        </mxCell>
        <mxCell id="I_HunuTIMYHuIlzramTN-10" value="" style="endArrow=classic;html=1;exitX=0;exitY=0.25;exitDx=0;exitDy=0;" parent="1" source="I_HunuTIMYHuIlzramTN-8" edge="1">
          <mxGeometry width="50" height="50" relative="1" as="geometry">
            <mxPoint x="127" y="167" as="sourcePoint" />
            <mxPoint x="127" y="87" as="targetPoint" />
          </mxGeometry>
        </mxCell>
        <mxCell id="I_HunuTIMYHuIlzramTN-11" value="&lt;font style=&quot;font-size: 18px&quot;&gt;enable&lt;/font&gt;" style="text;html=1;strokeColor=none;fillColor=none;align=center;verticalAlign=middle;whiteSpace=wrap;rounded=0;" parent="1" vertex="1">
          <mxGeometry x="79" y="77" width="40" height="20" as="geometry" />
        </mxCell>
        <mxCell id="I_HunuTIMYHuIlzramTN-13" value="&lt;font style=&quot;font-size: 18px&quot;&gt;vaddr&lt;/font&gt;" style="text;html=1;strokeColor=none;fillColor=none;align=center;verticalAlign=middle;whiteSpace=wrap;rounded=0;" parent="1" vertex="1">
          <mxGeometry x="76" y="122" width="40" height="20" as="geometry" />
        </mxCell>
        <mxCell id="I_HunuTIMYHuIlzramTN-17" value="" style="endArrow=classic;html=1;exitX=0;exitY=1;exitDx=0;exitDy=0;" parent="1" source="I_HunuTIMYHuIlzramTN-8" edge="1">
          <mxGeometry width="50" height="50" relative="1" as="geometry">
            <mxPoint x="167" y="237" as="sourcePoint" />
            <mxPoint x="127" y="167" as="targetPoint" />
          </mxGeometry>
        </mxCell>
        <mxCell id="I_HunuTIMYHuIlzramTN-18" value="&lt;font style=&quot;font-size: 18px&quot;&gt;flush&lt;/font&gt;" style="text;html=1;strokeColor=none;fillColor=none;align=center;verticalAlign=middle;whiteSpace=wrap;rounded=0;" parent="1" vertex="1">
          <mxGeometry x="76" y="157" width="40" height="20" as="geometry" />
        </mxCell>
        <mxCell id="I_HunuTIMYHuIlzramTN-19" value="" style="endArrow=classic;html=1;exitX=1;exitY=0.5;exitDx=0;exitDy=0;" parent="1" source="I_HunuTIMYHuIlzramTN-9" edge="1">
          <mxGeometry width="50" height="50" relative="1" as="geometry">
            <mxPoint x="647" y="157" as="sourcePoint" />
            <mxPoint x="667" y="97" as="targetPoint" />
          </mxGeometry>
        </mxCell>
        <mxCell id="I_HunuTIMYHuIlzramTN-20" value="&lt;font style=&quot;font-size: 18px&quot;&gt;paddr&lt;/font&gt;" style="text;html=1;strokeColor=none;fillColor=none;align=center;verticalAlign=middle;whiteSpace=wrap;rounded=0;" parent="1" vertex="1">
          <mxGeometry x="677" y="87" width="40" height="20" as="geometry" />
        </mxCell>
        <mxCell id="I_HunuTIMYHuIlzramTN-21" value="&lt;font style=&quot;font-size: 18px&quot;&gt;page fault&lt;/font&gt;" style="text;html=1;strokeColor=none;fillColor=none;align=center;verticalAlign=middle;whiteSpace=wrap;rounded=0;" parent="1" vertex="1">
          <mxGeometry x="687" y="125" width="89" height="14.5" as="geometry" />
        </mxCell>
        <mxCell id="I_HunuTIMYHuIlzramTN-23" value="" style="endArrow=classic;html=1;" parent="1" edge="1">
          <mxGeometry width="50" height="50" relative="1" as="geometry">
            <mxPoint x="607" y="132" as="sourcePoint" />
            <mxPoint x="667" y="167" as="targetPoint" />
          </mxGeometry>
        </mxCell>
        <mxCell id="I_HunuTIMYHuIlzramTN-24" value="&lt;font style=&quot;font-size: 18px&quot;&gt;valid&lt;/font&gt;" style="text;html=1;strokeColor=none;fillColor=none;align=center;verticalAlign=middle;whiteSpace=wrap;rounded=0;" parent="1" vertex="1">
          <mxGeometry x="677" y="167" width="40" height="20" as="geometry" />
        </mxCell>
        <mxCell id="I_HunuTIMYHuIlzramTN-33" style="edgeStyle=orthogonalEdgeStyle;rounded=0;orthogonalLoop=1;jettySize=auto;html=1;exitX=0;exitY=0.5;exitDx=0;exitDy=0;" parent="1" source="I_HunuTIMYHuIlzramTN-25" target="I_HunuTIMYHuIlzramTN-2" edge="1">
          <mxGeometry relative="1" as="geometry" />
        </mxCell>
        <mxCell id="I_HunuTIMYHuIlzramTN-44" value="enable" style="edgeLabel;html=1;align=center;verticalAlign=middle;resizable=0;points=[];fontSize=18;" parent="I_HunuTIMYHuIlzramTN-33" vertex="1" connectable="0">
          <mxGeometry x="0.08" y="-3" relative="1" as="geometry">
            <mxPoint y="-12" as="offset" />
          </mxGeometry>
        </mxCell>
        <mxCell id="I_HunuTIMYHuIlzramTN-34" style="edgeStyle=orthogonalEdgeStyle;rounded=0;orthogonalLoop=1;jettySize=auto;html=1;exitX=0.5;exitY=1;exitDx=0;exitDy=0;entryX=0.5;entryY=0;entryDx=0;entryDy=0;" parent="1" source="I_HunuTIMYHuIlzramTN-25" target="I_HunuTIMYHuIlzramTN-26" edge="1">
          <mxGeometry relative="1" as="geometry" />
        </mxCell>
        <mxCell id="I_HunuTIMYHuIlzramTN-46" value="TLB miss" style="edgeLabel;html=1;align=center;verticalAlign=middle;resizable=0;points=[];fontSize=18;" parent="I_HunuTIMYHuIlzramTN-34" vertex="1" connectable="0">
          <mxGeometry x="-0.3212" y="1" relative="1" as="geometry">
            <mxPoint as="offset" />
          </mxGeometry>
        </mxCell>
        <mxCell id="I_HunuTIMYHuIlzramTN-25" value="&lt;div style=&quot;font-family: &amp;#34;consolas&amp;#34; , &amp;#34;courier new&amp;#34; , monospace ; line-height: 22px&quot;&gt;&lt;span style=&quot;background-color: rgb(255 , 255 , 255)&quot;&gt;&lt;font style=&quot;font-size: 18px&quot;&gt;find_tlb&lt;/font&gt;&lt;/span&gt;&lt;/div&gt;" style="ellipse;whiteSpace=wrap;html=1;aspect=fixed;" parent="1" vertex="1">
          <mxGeometry x="577" y="387" width="110" height="110" as="geometry" />
        </mxCell>
        <mxCell id="I_HunuTIMYHuIlzramTN-35" style="edgeStyle=orthogonalEdgeStyle;rounded=0;orthogonalLoop=1;jettySize=auto;html=1;exitX=0;exitY=0.5;exitDx=0;exitDy=0;" parent="1" source="I_HunuTIMYHuIlzramTN-26" target="I_HunuTIMYHuIlzramTN-31" edge="1">
          <mxGeometry relative="1" as="geometry" />
        </mxCell>
        <mxCell id="I_HunuTIMYHuIlzramTN-47" value="enable ptw" style="edgeLabel;html=1;align=center;verticalAlign=middle;resizable=0;points=[];fontSize=18;" parent="I_HunuTIMYHuIlzramTN-35" vertex="1" connectable="0">
          <mxGeometry x="0.2896" relative="1" as="geometry">
            <mxPoint x="14" as="offset" />
          </mxGeometry>
        </mxCell>
        <mxCell id="I_HunuTIMYHuIlzramTN-26" value="&lt;div style=&quot;font-family: &amp;#34;consolas&amp;#34; , &amp;#34;courier new&amp;#34; , monospace ; line-height: 22px&quot;&gt;&lt;span style=&quot;background-color: rgb(255 , 255 , 255)&quot;&gt;&lt;font style=&quot;font-size: 18px&quot;&gt;find_entry&lt;/font&gt;&lt;/span&gt;&lt;/div&gt;" style="ellipse;whiteSpace=wrap;html=1;aspect=fixed;" parent="1" vertex="1">
          <mxGeometry x="577" y="607" width="110" height="110" as="geometry" />
        </mxCell>
        <mxCell id="I_HunuTIMYHuIlzramTN-39" style="edgeStyle=orthogonalEdgeStyle;rounded=0;orthogonalLoop=1;jettySize=auto;html=1;exitX=0.5;exitY=0;exitDx=0;exitDy=0;entryX=0.5;entryY=1;entryDx=0;entryDy=0;" parent="1" source="I_HunuTIMYHuIlzramTN-27" target="I_HunuTIMYHuIlzramTN-2" edge="1">
          <mxGeometry relative="1" as="geometry" />
        </mxCell>
        <mxCell id="I_HunuTIMYHuIlzramTN-42" value="write finish" style="edgeLabel;html=1;align=center;verticalAlign=middle;resizable=0;points=[];fontSize=18;" parent="I_HunuTIMYHuIlzramTN-39" vertex="1" connectable="0">
          <mxGeometry x="-0.2606" y="-1" relative="1" as="geometry">
            <mxPoint as="offset" />
          </mxGeometry>
        </mxCell>
        <mxCell id="I_HunuTIMYHuIlzramTN-27" value="&lt;div style=&quot;font-family: &amp;#34;consolas&amp;#34; , &amp;#34;courier new&amp;#34; , monospace ; line-height: 22px&quot;&gt;&lt;span style=&quot;background-color: rgb(255 , 255 , 255)&quot;&gt;&lt;font style=&quot;font-size: 18px&quot;&gt;write_back&lt;/font&gt;&lt;/span&gt;&lt;/div&gt;" style="ellipse;whiteSpace=wrap;html=1;aspect=fixed;" parent="1" vertex="1">
          <mxGeometry x="167" y="607" width="110" height="110" as="geometry" />
        </mxCell>
        <mxCell id="I_HunuTIMYHuIlzramTN-36" style="edgeStyle=orthogonalEdgeStyle;rounded=0;orthogonalLoop=1;jettySize=auto;html=1;exitX=0.5;exitY=0;exitDx=0;exitDy=0;entryX=0;entryY=1;entryDx=0;entryDy=0;" parent="1" source="I_HunuTIMYHuIlzramTN-31" target="I_HunuTIMYHuIlzramTN-25" edge="1">
          <mxGeometry relative="1" as="geometry">
            <Array as="points">
              <mxPoint x="438" y="552" />
              <mxPoint x="593" y="552" />
            </Array>
          </mxGeometry>
        </mxCell>
        <mxCell id="I_HunuTIMYHuIlzramTN-48" value="ptw respons" style="edgeLabel;html=1;align=center;verticalAlign=middle;resizable=0;points=[];fontSize=18;" parent="I_HunuTIMYHuIlzramTN-36" vertex="1" connectable="0">
          <mxGeometry x="-0.2047" relative="1" as="geometry">
            <mxPoint x="50" y="1" as="offset" />
          </mxGeometry>
        </mxCell>
        <mxCell id="I_HunuTIMYHuIlzramTN-31" value="&lt;div style=&quot;font-family: &amp;#34;consolas&amp;#34; , &amp;#34;courier new&amp;#34; , monospace ; line-height: 22px&quot;&gt;&lt;span style=&quot;background-color: rgb(255 , 255 , 255)&quot;&gt;&lt;font style=&quot;font-size: 18px&quot;&gt;find_ptw&lt;/font&gt;&lt;/span&gt;&lt;/div&gt;" style="ellipse;whiteSpace=wrap;html=1;aspect=fixed;" parent="1" vertex="1">
          <mxGeometry x="349" y="607" width="110" height="110" as="geometry" />
        </mxCell>
        <mxCell id="I_HunuTIMYHuIlzramTN-38" value="" style="endArrow=classic;html=1;exitX=0.042;exitY=0.745;exitDx=0;exitDy=0;exitPerimeter=0;entryX=1;entryY=0;entryDx=0;entryDy=0;" parent="1" source="I_HunuTIMYHuIlzramTN-25" target="I_HunuTIMYHuIlzramTN-27" edge="1">
          <mxGeometry width="50" height="50" relative="1" as="geometry">
            <mxPoint x="387" y="557" as="sourcePoint" />
            <mxPoint x="437" y="507" as="targetPoint" />
            <Array as="points" />
          </mxGeometry>
        </mxCell>
        <mxCell id="I_HunuTIMYHuIlzramTN-43" value="write back AD bits" style="edgeLabel;html=1;align=center;verticalAlign=middle;resizable=0;points=[];fontSize=18;" parent="I_HunuTIMYHuIlzramTN-38" vertex="1" connectable="0">
          <mxGeometry x="0.0876" relative="1" as="geometry">
            <mxPoint x="50" y="-26" as="offset" />
          </mxGeometry>
        </mxCell>
        <mxCell id="I_HunuTIMYHuIlzramTN-40" value="&lt;font style=&quot;font-size: 18px&quot;&gt;finite state machine&lt;/font&gt;" style="text;html=1;strokeColor=none;fillColor=none;align=center;verticalAlign=middle;whiteSpace=wrap;rounded=0;" parent="1" vertex="1">
          <mxGeometry x="341" y="377" width="179.25" height="10" as="geometry" />
        </mxCell>
        <mxCell id="I_HunuTIMYHuIlzramTN-41" value="" style="shape=singleArrow;direction=south;whiteSpace=wrap;html=1;" parent="1" vertex="1">
          <mxGeometry x="412" y="307" width="30" height="50" as="geometry" />
        </mxCell>
        <mxCell id="I_HunuTIMYHuIlzramTN-45" value="get paddr" style="edgeLabel;html=1;align=center;verticalAlign=middle;resizable=0;points=[];fontSize=18;" parent="1" vertex="1" connectable="0">
          <mxGeometry x="427" y="437" as="geometry">
            <mxPoint x="-15" y="17" as="offset" />
          </mxGeometry>
        </mxCell>
      </root>
    </mxGraphModel>
  </diagram>
</mxfile>
